<?xml version="1.0" encoding="iso-8859-1"?>
<!-- Generator: Adobe Illustrator 19.0.0, SVG Export Plug-In . SVG Version: 6.00 Build 0)  -->
<svg version="1.1" id="Capa_1" xmlns="http://www.w3.org/2000/svg" xmlns:xlink="http://www.w3.org/1999/xlink" x="0px" y="0px"
	 viewBox="0 0 512 512" style="enable-background:new 0 0 512 512;" xml:space="preserve">
<path style="fill:#FFCC80;" d="M408.512,191.232c-2.624-8.134-11.177-12.77-19.424-10.528
	c-57.616,15.674-119.254,2.564-165.504-35.2c-6.841-5.594-16.921-4.583-22.515,2.258c-0.754,0.922-1.402,1.925-1.933,2.99
	c-3.508,6.935-8.087,13.274-13.568,18.784c-17.882,17.661-42.926,26.06-67.84,22.752c-8.281-1.144-16.047,4.28-17.824,12.448
	C97.34,216.316,96.032,228.139,96,240v32c0,88.366,71.634,160,160,160s160-71.634,160-160v-32
	C416.072,223.452,413.546,206.996,408.512,191.232z"/>
<path style="fill:#455A64;" d="M408.544,191.296c-7.849-24.266-21.363-46.313-39.424-64.32
	c-62.443-62.524-163.75-62.59-226.274-0.146c-21.354,21.326-36.241,48.257-42.942,77.682c-1.854,8.64,3.647,17.147,12.287,19.001
	c0.371,0.08,0.745,0.146,1.121,0.199c5.015,0.703,10.072,1.056,15.136,1.056c29.78-0.111,58.333-11.873,79.552-32.768
	c3.459-3.47,6.667-7.18,9.6-11.104c52.51,36.082,118.222,47.268,179.712,30.592c4.218-1.12,7.785-3.935,9.856-7.776
	C409.29,199.931,409.787,195.45,408.544,191.296z"/>
<path d="M256,432c-88.322-0.106-159.894-71.678-160-160v-32c0-88.366,71.634-160,160-160s160,71.634,160,160v32
	C415.894,360.322,344.322,431.894,256,432z M256,112c-70.692,0-128,57.308-128,128v32c0,70.692,57.308,128,128,128
	s128-57.308,128-128v-32C384,169.308,326.692,112,256,112z"/>
<path d="M16,144c-8.837,0-16-7.163-16-16V64c0-8.837,7.163-16,16-16h64c8.837,0,16,7.163,16,16s-7.163,16-16,16H32v48
	C32,136.837,24.837,144,16,144z"/>
<path d="M496,144c-8.837,0-16-7.163-16-16V80h-48c-8.837,0-16-7.163-16-16s7.163-16,16-16h64c8.837,0,16,7.163,16,16v64
	C512,136.837,504.837,144,496,144z"/>
<path d="M80,464H16c-8.837,0-16-7.163-16-16v-64c0-8.837,7.163-16,16-16s16,7.163,16,16v48h48c8.837,0,16,7.163,16,16
	S88.837,464,80,464z"/>
<path d="M496,464h-64c-8.837,0-16-7.163-16-16s7.163-16,16-16h48v-48c0-8.837,7.163-16,16-16s16,7.163,16,16v64
	C512,456.837,504.837,464,496,464z"/>
<path d="M208.64,272c-8.837,0-16-7.163-16-16c0-8.837,7.163-16,16-16h0.32c8.837,0,16,7.163,16,16c0,8.837-7.163,16-16,16H208.64z"
	/>
<path d="M304.64,272c-8.837,0-16-7.163-16-16c-0.002-8.713,6.969-15.826,15.68-16h0.32c8.837,0,16,7.163,16,16
	C320.64,264.837,313.477,272,304.64,272z"/>
<path d="M256,368c-14.149,0.102-28.178-2.595-41.28-7.936c-8.275-3.1-12.47-12.322-9.369-20.597
	c3.1-8.275,12.322-12.47,20.597-9.369c0.326,0.122,0.648,0.255,0.965,0.398c18.705,7.301,39.471,7.301,58.176,0
	c8.055-3.633,17.53-0.048,21.164,8.007c3.633,8.055,0.048,17.53-8.007,21.163c-0.317,0.143-0.639,0.276-0.965,0.398
	C284.178,365.405,270.149,368.102,256,368z"/>
<path d="M128.48,224.896c-5.071,0.054-10.139-0.245-15.168-0.896c-8.746-1.223-14.847-9.301-13.632-18.048
	c1.319-8.703,9.35-14.758,18.08-13.632c24.939,3.262,49.985-5.197,67.84-22.912c5.458-5.522,10.025-11.859,13.536-18.784
	c3.706-8.022,13.213-11.521,21.235-7.815c8.022,3.706,11.521,13.213,7.815,21.235c-0.138,0.299-0.286,0.594-0.442,0.884
	C222.645,174.945,215.98,184.084,208,192C186.81,212.934,158.267,224.742,128.48,224.896z"/>
<path d="M340.736,219.168c-50.099,0.012-98.658-17.309-137.44-49.024c-6.839-5.602-7.842-15.689-2.24-22.528
	c5.602-6.84,15.689-7.842,22.528-2.24c46.264,37.735,107.888,50.841,165.504,35.2c8.554-2.218,17.286,2.919,19.503,11.472
	c2.182,8.416-2.756,17.034-11.119,19.408C378.986,216.534,359.907,219.128,340.736,219.168z"/>
<g>
</g>
<g>
</g>
<g>
</g>
<g>
</g>
<g>
</g>
<g>
</g>
<g>
</g>
<g>
</g>
<g>
</g>
<g>
</g>
<g>
</g>
<g>
</g>
<g>
</g>
<g>
</g>
<g>
</g>
</svg>
